<svg width="23" height="23" viewBox="0 0 23 23" fill="none" xmlns="http://www.w3.org/2000/svg">
<path d="M22.8026 0.19743C22.6121 0.006737 22.326 -0.051931 22.0759 0.0482897L0.423592 8.70914C0.175803 8.80819 0.0099061 9.04416 0.000427583 9.31082C-0.00905093 9.57748 0.13973 9.82464 0.379748 9.94103L8.91791 14.082L13.0589 22.6202C13.1718 22.8531 13.4077 23 13.665 23C13.673 23 13.6811 22.9999 13.6891 22.9995C13.9558 22.9901 14.1917 22.8242 14.2908 22.5764L22.9518 0.924176C23.0519 0.673917 22.9932 0.388034 22.8026 0.19743Z" fill="url(#paint0_linear)"/>
<path d="M22.8022 0.197388L8.91748 14.0819L13.0585 22.6201C13.1714 22.853 13.4072 22.9999 13.6646 22.9999C13.6726 22.9999 13.6806 22.9998 13.6887 22.9995C13.9553 22.99 14.1913 22.8241 14.2904 22.5763L22.9513 0.924134C23.0514 0.673874 22.9928 0.387991 22.8022 0.197388Z" fill="url(#paint1_linear)"/>
<defs>
<linearGradient id="paint0_linear" x1="11.5" y1="0" x2="11.5" y2="23" gradientUnits="userSpaceOnUse">
<stop stop-color="#12C2E9"/>
<stop offset="1" stop-color="#C471ED"/>
</linearGradient>
<linearGradient id="paint1_linear" x1="15.9585" y1="0.197388" x2="15.9585" y2="22.9999" gradientUnits="userSpaceOnUse">
<stop stop-color="#C471ED"/>
<stop offset="1" stop-color="#F64F59"/>
</linearGradient>
</defs>
</svg>
